Coordinates
version=1
nRows=25
nColumns=38
inDegrees=no

Units are S.I. units (second, meters, Newtons, ...)
If the header above contains a line with 'inDegrees', this indicates whether rotational values are in degrees (yes) or radians (no).

endheader
time	pelvis_tilt	pelvis_list	pelvis_rotation	pelvis_tx	pelvis_ty	pelvis_tz	hip_flexion_r	hip_adduction_r	hip_rotation_r	knee_angle_r	ankle_angle_r	subtalar_angle_r	mtp_angle_r	hip_flexion_l	hip_adduction_l	hip_rotation_l	knee_angle_l	ankle_angle_l	subtalar_angle_l	mtp_angle_l	lumbar_extension	lumbar_bending	lumbar_rotation	arm_flex_r	arm_add_r	arm_rot_r	elbow_flex_r	pro_sup_r	wrist_flex_r	wrist_dev_r	arm_flex_l	arm_add_l	arm_rot_l	elbow_flex_l	pro_sup_l	wrist_flex_l	wrist_dev_l
0	2.90905	1.21695	-1.32731	0.696248	-0.474343	0.95494	-0.463448	0.00589958	-0.29019	0	-0.122734	0	0	-0.466177	-0.162301	-0.523991	0	-0.070289	0	0	-0.476388	0.0658947	0.0907227	0.0416214	-0.289675	0.488009	0.575051	0.0707818	0	0	0.0508616	-0.172482	0.369912	0.51331	1.35906	0	0
0.01	2.91023	1.22959	-1.32928	0.69681	-0.474113	0.954138	-0.448091	0.0056177	-0.296439	0	-0.124366	0	0	-0.452851	-0.159237	-0.520727	0	-0.0708574	0	0	-0.462406	0.0592288	0.0907098	0.105156	-0.225917	0.472527	0.389597	0.0704719	0	0	0.0527378	-0.177735	0.372029	0.51424	1.34418	0	0
0.02	2.97497	1.21912	-1.38303	0.694487	-0.476527	0.956689	-0.463734	-0.0135246	-0.310738	0	-0.125455	0	0	-0.461339	-0.138949	-0.507988	0	-0.0796556	0	0	-0.487865	0.0457948	0.0792371	0.198296	-0.168751	0.155551	0.151855	0.0113791	0	0	0.0949892	-0.14935	0.319623	0.430496	1.3732	0	0
0.03	2.97672	1.2181	-1.38504	0.694576	-0.476836	0.956772	-0.464763	-0.0140441	-0.310689	0	-0.124357	0	0	-0.462235	-0.138436	-0.507032	0	-0.0803871	0	0	-0.487656	0.0448409	0.0791053	0.127151	-0.194145	0.207419	0.313664	0	0	0	0.0989788	-0.144379	0.296597	0.419021	1.39861	0	0
0.04	2.97676	1.21762	-1.38578	0.694253	-0.47644	0.956709	-0.465578	-0.0141925	-0.309194	0	-0.12441	0	0	-0.463229	-0.138298	-0.506899	0	-0.0809111	0	0	-0.486809	0.045048	0.078583	0.119846	-0.20274	0.270772	0.338922	0	0	0	0.0993481	-0.141502	0.278968	0.413413	1.42395	0	0
0.05	2.9765	1.21729	-1.3858	0.694801	-0.476293	0.956708	-0.466874	-0.014512	-0.307798	0	-0.124864	0	0	-0.464535	-0.138085	-0.506475	0	-0.0817759	0	0	-0.484811	0.0454131	0.0777246	0.116558	-0.207855	0.311864	0.349887	0	0	0	0.0984392	-0.139499	0.263758	0.410337	1.44691	0	0
0.06	2.97484	1.21946	-1.38467	0.694662	-0.476769	0.956601	-0.463379	-0.0143127	-0.308651	0	-0.122555	0	0	-0.461089	-0.138236	-0.507788	0	-0.0801205	0	0	-0.487654	0.0450691	0.0814287	0.207708	-0.164861	0.0398269	0.125401	0	0	0	0.103489	-0.136534	0.247416	0.407243	1.48009	0	0
0.07	2.97634	1.21821	-1.38618	0.694405	-0.476041	0.956557	-0.466377	-0.0149993	-0.306854	0	-0.123861	0	0	-0.463976	-0.137624	-0.506718	0	-0.0818366	0	0	-0.485783	0.0449902	0.0839636	0.227604	-0.16245	-0.140125	0.0693323	0	0	0	0.103995	-0.134289	0.238966	0.403696	1.49997	0	0
0.08	2.91114	1.23387	-1.33147	0.696933	-0.475941	0.953891	-0.440867	0.00437712	-0.298183	0	-0.116257	0	0	-0.444936	-0.157725	-0.522082	0	-0.0675299	0	0	-0.46554	0.0560008	0.0975246	0.1309	-0.179912	0.0430616	0.286903	0	0	0	0.0685192	-0.166632	0.307818	0.499144	1.46297	0	0
0.09	2.97421	1.22272	-1.38441	0.694558	-0.478051	0.956337	-0.457041	-0.0142778	-0.311405	0	-0.117895	0	0	-0.454451	-0.137917	-0.512878	0	-0.0750251	0	0	-0.489698	0.0437562	0.0836159	0.220887	-0.162939	-0.0607837	0.105736	0	0	0	0.106736	-0.146531	0.288297	0.425937	1.45695	0	0
0.1	2.91396	1.23209	-1.33427	0.696667	-0.474387	0.953819	-0.446271	0.00312089	-0.29395	0	-0.120097	0	0	-0.45021	-0.156767	-0.519799	0	-0.0716746	0	0	-0.462433	0.0561889	0.0996698	0.222018	-0.162083	-0.188002	0.0660825	0	0	0	0.0638525	-0.16817	0.319291	0.502292	1.43853	0	0
0.11	2.91512	1.23252	-1.33513	0.697029	-0.474533	0.953801	-0.446121	0.00296828	-0.293509	0	-0.121024	0	0	-0.449896	-0.156608	-0.519289	0	-0.0719947	0	0	-0.458864	0.0552141	0.0985827	0.127194	-0.175223	-0.0234838	0.275291	0	0	0	0.0620681	-0.175277	0.347087	0.510845	1.40427	0	0
0.12	2.9778	1.21963	-1.38816	0.694571	-0.476478	0.956371	-0.464012	-0.0156022	-0.3069	0	-0.124023	0	0	-0.461735	-0.13689	-0.5084	0	-0.0811286	0	0	-0.484407	0.0434204	0.0840596	0.217915	-0.162572	-0.108749	0.0958221	0	0	0	0.098956	-0.151763	0.317496	0.434046	1.40422	0	0
0.13	2.97714	1.21869	-1.38814	0.694506	-0.477043	0.956542	-0.463615	-0.0154139	-0.307407	0	-0.124216	0	0	-0.461795	-0.137016	-0.509203	0	-0.0811308	0	0	-0.488391	0.0434916	0.0853967	0.233903	-0.163397	-0.2161	0.0603736	0	0	0	0.104598	-0.145032	0.290427	0.421903	1.42051	0	0
0.14	2.97578	1.21914	-1.38737	0.694771	-0.477755	0.956615	-0.462022	-0.0152392	-0.30764	0	-0.123466	0	0	-0.460444	-0.13711	-0.510668	0	-0.0800204	0	0	-0.490588	0.0433017	0.0870825	0.242604	-0.165454	-0.292803	0.0426321	0	0	0	0.108996	-0.141494	0.275365	0.415512	1.43988	0	0
0.15	2.9087	1.23454	-1.3328	0.697617	-0.476563	0.953853	-0.438575	0.00389674	-0.295907	0	-0.116919	0	0	-0.444346	-0.157101	-0.526793	0	-0.0674358	0	0	-0.464274	0.054224	0.103077	0.130692	-0.175367	-0.0392254	0.282969	0	0	0	0.0725158	-0.172129	0.337752	0.503754	1.41067	0	0
0.16	2.91113	1.23234	-1.33417	0.697504	-0.475361	0.953868	-0.443931	0.00338791	-0.292581	0	-0.121344	0	0	-0.449301	-0.156913	-0.524042	0	-0.070841	0	0	-0.459882	0.0551213	0.0998022	0.11087	-0.188157	0.100132	0.325579	0	0	0	0.0650398	-0.176682	0.357276	0.509663	1.38683	0	0
0.17	2.90833	1.23178	-1.33274	0.697381	-0.47534	0.953829	-0.443658	0.00420892	-0.291667	0	-0.121162	0	0	-0.449831	-0.157745	-0.525286	0	-0.0702974	0	0	-0.460594	0.0558531	0.0987763	0.105519	-0.198351	0.197413	0.348724	0	0	0	0.0636244	-0.179073	0.366893	0.513542	1.36575	0	0
0.18	2.90624	1.23215	-1.33179	0.697693	-0.475069	0.953737	-0.443299	0.00448459	-0.290676	0	-0.120988	0	0	-0.450132	-0.158087	-0.525654	0	-0.0702715	0	0	-0.461484	0.0556301	0.101314	0.191964	-0.16511	0.0243729	0.141582	0	0	0	0.0634173	-0.180605	0.375779	0.517192	1.34706	0	0
0.19	2.97797	1.21525	-1.38993	0.695164	-0.477615	0.956746	-0.466602	-0.015003	-0.306732	0	-0.125567	0	0	-0.465569	-0.137564	-0.509014	0	-0.0814212	0	0	-0.488101	0.041843	0.0823089	0.121093	-0.188874	0.116703	0.321098	0	0	0	0.100815	-0.157352	0.345791	0.438923	1.35751	0	0
0.2	2.9081	1.22923	-1.33374	0.697763	-0.475549	0.953953	-0.44581	0.00447517	-0.291221	0	-0.121753	0	0	-0.453038	-0.158142	-0.524306	0	-0.0711792	0	0	-0.463603	0.0555439	0.0979532	0.105339	-0.199065	0.205832	0.351505	0	0	0	0.0633382	-0.177634	0.361	0.511887	1.35578	0	0
0.21	2.90629	1.22985	-1.33229	0.697711	-0.475564	0.953866	-0.444807	0.00480513	-0.29077	0	-0.121753	0	0	-0.452173	-0.1585	-0.525614	0	-0.070267	0	0	-0.462916	0.0561081	0.0959777	0.103477	-0.205477	0.26485	0.363864	0	0	0	0.0605651	-0.181197	0.37205	0.519024	1.3453	0	0
0.22	2.9556	1.22233	-1.3541	0.697308	-0.482708	0.956457	-0.449493	0.00279004	-0.317765	0	-0.1286	0	0	-0.44186	-0.15518	-0.523768	0	-0.0737574	0	0	-0.499732	0.0444066	0.0818581	0.260132	-0.159404	-0.433621	0.0293234	0.0428064	0	0	0.0940206	-0.196732	0.420854	0.529653	1.28434	0	0
0.23	2.96789	1.21542	-1.38514	0.696037	-0.478186	0.956984	-0.463463	-0.0125186	-0.303991	0	-0.125545	0	0	-0.464931	-0.139913	-0.517524	0	-0.0804387	0	0	-0.49226	0.0415444	0.0912681	0.151108	-0.164362	-0.207693	0.241056	0.0325903	0	0	0.104371	-0.160647	0.372356	0.444476	1.31475	0	0
0.24	2.89217	1.23537	-1.31704	0.696923	-0.475651	0.95373	-0.43715	0.00787124	-0.291119	0	-0.124179	0	0	-0.444159	-0.161718	-0.528514	0	-0.0692495	0	0	-0.461487	0.0616895	0.10182	0.223568	-0.163736	-0.272107	0.0686786	0.0283793	0	0	0.0971545	-0.148744	0.327517	0.429973	1.36719	0	0
